<svg height='300px' width='300px'  fill="#000000" xmlns="http://www.w3.org/2000/svg" xmlns:xlink="http://www.w3.org/1999/xlink" version="1.1" x="0px" y="0px" viewBox="0 0 100 100" style="enable-background:new 0 0 100 100;" xml:space="preserve"><path d="M74.4033203,9.9516602H25.4296875c-3.5458984,0-6.4306641,2.8842773-6.4306641,6.4296875v67.140625  c0,3.5454102,2.8847656,6.4296875,6.4306641,6.4296875h48.9736328c3.5449219,0,6.4296875-2.8842773,6.4296875-6.4296875v-67.140625  C80.8330078,12.8359375,77.9482422,9.9516602,74.4033203,9.9516602z M78.8330078,83.5219727  c0,2.4423828-1.9873047,4.4296875-4.4296875,4.4296875H25.4296875c-2.4433594,0-4.4306641-1.9873047-4.4306641-4.4296875v-67.140625  c0-2.4423828,1.9873047-4.4296875,4.4306641-4.4296875h48.9736328c2.4423828,0,4.4296875,1.9873047,4.4296875,4.4296875V83.5219727z  "></path><path d="M54.5175781,40.3291016h15.9443359c0.5527344,0,1-0.4477539,1-1s-0.4472656-1-1-1H54.5175781c-0.5527344,0-1,0.4477539-1,1  S53.9648438,40.3291016,54.5175781,40.3291016z"></path><path d="M54.5175781,21.3291016h15.9443359c0.5527344,0,1-0.4477539,1-1s-0.4472656-1-1-1H54.5175781c-0.5527344,0-1,0.4477539-1,1  S53.9648438,21.3291016,54.5175781,21.3291016z"></path><path d="M54.5175781,30.8291016h15.9443359c0.5527344,0,1-0.4477539,1-1s-0.4472656-1-1-1H54.5175781c-0.5527344,0-1,0.4477539-1,1  S53.9648438,30.8291016,54.5175781,30.8291016z"></path><path d="M73.8515625,48.5791016h-2.4833984c-0.5527344,0-1,0.4477539-1,1s0.4472656,1,1,1h2.4833984c0.5527344,0,1-0.4477539,1-1  S74.4042969,48.5791016,73.8515625,48.5791016z"></path><path d="M66.2871094,48.5791016h-2.4833984c-0.5527344,0-1,0.4477539-1,1s0.4472656,1,1,1h2.4833984c0.5527344,0,1-0.4477539,1-1  S66.8398438,48.5791016,66.2871094,48.5791016z"></path><path d="M56.2392578,48.5791016c-0.5527344,0-1,0.4477539-1,1s0.4472656,1,1,1h2.4833984c0.5527344,0,1-0.4477539,1-1  s-0.4472656-1-1-1H56.2392578z"></path><path d="M48.6738281,50.5791016h2.484375c0.5527344,0,1-0.4477539,1-1s-0.4472656-1-1-1h-2.484375c-0.5527344,0-1,0.4477539-1,1  S48.1210938,50.5791016,48.6738281,50.5791016z"></path><path d="M41.109375,48.5791016c-0.5527344,0-1,0.4477539-1,1s0.4472656,1,1,1h2.484375c0.5527344,0,1-0.4477539,1-1  s-0.4472656-1-1-1H41.109375z"></path><path d="M37.0292969,49.5791016c0-0.5522461-0.4472656-1-1-1h-2.484375c-0.5527344,0-1,0.4477539-1,1s0.4472656,1,1,1h2.484375  C36.5820312,50.5791016,37.0292969,50.1313477,37.0292969,49.5791016z"></path><path d="M28.4648438,48.5791016h-2.484375c-0.5527344,0-1,0.4477539-1,1s0.4472656,1,1,1h2.484375c0.5527344,0,1-0.4477539,1-1  S29.0175781,48.5791016,28.4648438,48.5791016z"></path><path d="M47.0966797,39.5V20.3291016c0-0.5522461-0.4472656-1-1-1H29.6894531c-0.5527344,0-1,0.4477539-1,1V39.5  c0,0.5522461,0.4472656,1,1,1h16.4072266C46.6494141,40.5,47.0966797,40.0522461,47.0966797,39.5z M45.0966797,38.5H30.6894531  V21.3291016h14.4072266V38.5z"></path><path d="M65.4990234,65.6132812c0.3759766-0.2441406,0.5429688-0.7080078,0.4101562-1.1352539  c-0.1337891-0.4277344-0.5361328-0.7368164-0.9814453-0.7026367c-1.6650391,0.0356445-3.2128906-0.7075195-4.140625-2.0092773  c-0.8515625-1.1943359-1.0478516-2.6577148-0.5390625-4.0151367c0.1552734-0.4140625,0.0205078-0.8803711-0.3320312-1.1479492  c-0.3515625-0.2661133-0.8369141-0.2714844-1.1943359-0.0102539c-1.3017578,0.949707-3.0029297,1.2104492-4.5605469,0.6967773  c-1.4824219-0.4902344-2.5849609-1.5849609-3.0244141-3.0029297c-0.1298828-0.418457-0.5166016-0.7036133-0.9550781-0.7036133  s-0.8251953,0.2851562-0.9550781,0.7036133c-0.4394531,1.4179688-1.5419922,2.5126953-3.0244141,3.0029297  c-1.5546875,0.5141602-3.2587891,0.2543945-4.5605469-0.6967773c-0.3554688-0.2612305-0.8408203-0.2558594-1.1943359,0.0102539  c-0.3525391,0.2675781-0.4873047,0.7338867-0.3320312,1.1479492c0.5087891,1.3574219,0.3125,2.8208008-0.5390625,4.015625  c-0.9277344,1.3017578-2.4746094,2.0444336-4.1396484,2.0087891c-0.4433594-0.0332031-0.8476562,0.2749023-0.9814453,0.7026367  c-0.1328125,0.4272461,0.0341797,0.8911133,0.4101562,1.1352539c1.3183594,0.8579102,2.0751953,2.2138672,2.0742188,3.7202148  c0,1.5058594-0.7558594,2.8613281-2.0742188,3.7192383c-0.3759766,0.2441406-0.5429688,0.7080078-0.4101562,1.1352539  c0.1337891,0.4272461,0.5371094,0.7109375,0.9814453,0.7026367c1.6630859-0.0249023,3.2119141,0.7075195,4.1396484,2.0087891  c0.8515625,1.1948242,1.0478516,2.6582031,0.5390625,4.015625c-0.1552734,0.4140625-0.0205078,0.8803711,0.3320312,1.1474609  c0.3535156,0.2680664,0.8388672,0.2724609,1.1943359,0.0107422c1.3007812-0.9501953,3.0019531-1.2109375,4.5605469-0.6962891  c1.4824219,0.4902344,2.5849609,1.5849609,3.0244141,3.0029297c0.1298828,0.418457,0.5166016,0.7036133,0.9550781,0.7036133  s0.8251953-0.2851562,0.9550781-0.7036133c0.4394531-1.4179688,1.5419922-2.5126953,3.0244141-3.0029297  c1.5576172-0.5146484,3.2607422-0.2539062,4.5605469,0.6962891c0.3574219,0.2617188,0.8427734,0.2573242,1.1943359-0.0107422  c0.3525391-0.2670898,0.4873047-0.7333984,0.3320312-1.1474609c-0.5087891-1.3574219-0.3125-2.8208008,0.5390625-4.0151367  c0.9277344-1.3022461,2.4755859-2.0458984,4.140625-2.0092773c0.4453125,0.0087891,0.8476562-0.2753906,0.9814453-0.7026367  c0.1328125-0.4272461-0.0341797-0.8911133-0.4101562-1.1352539c-1.3183594-0.8579102-2.0742188-2.2133789-2.0742188-3.7192383  C63.4238281,67.8271484,64.1806641,66.4711914,65.4990234,65.6132812z M62.7402344,73.1884766  c-1.4384766,0.4326172-2.703125,1.3168945-3.5820312,2.550293c-0.8027344,1.1269531-1.2060547,2.4194336-1.1904297,3.7294922  c-1.4189453-0.4643555-2.9746094-0.472168-4.4345703,0.0097656c-1.3876953,0.4594727-2.5439453,1.2998047-3.3515625,2.4052734  c-0.8076172-1.1054688-1.9638672-1.9458008-3.3515625-2.4052734c-0.7304688-0.2416992-1.4853516-0.3598633-2.234375-0.3598633  c-0.7480469,0-1.4912109,0.1181641-2.2001953,0.3500977c0.015625-1.3105469-0.3876953-2.6025391-1.1904297-3.7294922  c-0.8789062-1.2333984-2.1435547-2.1176758-3.5810547-2.550293c0.84375-1.1030273,1.3154297-2.4482422,1.3154297-3.8549805  c0.0009766-1.4072266-0.4716797-2.7529297-1.3164062-3.855957c1.4384766-0.4326172,2.703125-1.3168945,3.5820312-2.550293  c0.8027344-1.1264648,1.2060547-2.4189453,1.1904297-3.7294922c1.4199219,0.465332,2.9755859,0.4726562,4.4345703-0.0092773  c1.3876953-0.4594727,2.5439453-1.2993164,3.3515625-2.4052734c0.8076172,1.105957,1.9638672,1.9458008,3.3515625,2.4052734  c1.4589844,0.4819336,3.0146484,0.4746094,4.4345703,0.0092773c-0.015625,1.3105469,0.3876953,2.6025391,1.1904297,3.7294922  c0.8798828,1.2333984,2.1435547,2.1176758,3.5820312,2.550293c-0.84375,1.1035156-1.3164062,2.4487305-1.3154297,3.855957  C61.4248047,70.7402344,61.8964844,72.0854492,62.7402344,73.1884766z"></path><path d="M50.1816406,61.0014648c-4.5947266,0-8.3320312,3.7373047-8.3320312,8.331543s3.7373047,8.3320312,8.3320312,8.3320312  s8.3320312-3.737793,8.3320312-8.3320312S54.7763672,61.0014648,50.1816406,61.0014648z M50.1816406,75.6650391  c-3.4912109,0-6.3320312-2.840332-6.3320312-6.3320312c0-3.4912109,2.8408203-6.331543,6.3320312-6.331543  s6.3320312,2.840332,6.3320312,6.331543C56.5136719,72.824707,53.6728516,75.6650391,50.1816406,75.6650391z"></path></svg>